<svg class="service_icon" width="24" height="36" fill="none" xmlns="http://www.w3.org/2000/svg"><path d="M1.085 27.154h21.279v7.141c0 .39-.316.705-.705.705H1.79a.705.705 0 0 1-.705-.705v-7.14ZM22.364 5.238H1.085v21.915h21.279V5.238Z"/><path d="M7.012 12.898h11.335L15.88 19.12H8.773l-1.761-6.223Z"/><path d="m7.012 12.897-.28-1.088a1.015 1.015 0 0 0-.983-.761H5.1" fill="#FFE0D7"/><path d="m7.012 12.897-.28-1.088a1.015 1.015 0 0 0-.983-.761H5.1M8.774 19.122v1.524M15.882 19.122v1.524M1.79 1H21.66c.39 0 .705.316.705.705V5.24H1.085V1.705c0-.39.316-.705.706-.705ZM12.55 31.077H10.9"/></svg>